<svg width="28" height="28" viewBox="0 0 28 28" xmlns="http://www.w3.org/2000/svg" xmlns:xlink="http://www.w3.org/1999/xlink">
    <defs>
        <path id="5bu3l7rvba" d="M0 0h28v28H0z"/>
        <path id="gz1zw21awb" d="M0 0h24v24H0z"/>
    </defs>
    <g fill="none" fill-rule="evenodd">
        <g transform="translate(2 2)">
            <mask id="9hpzq8lwoc" fill="#fff">
                <use xlink:href="#gz1zw21awb"/>
            </mask>
            <path d="M12 0a12 12 0 1 0 0 24 12 12 0 0 0 0-24zm0 22.5A10.5 10.5 0 1 1 22.5 12 10.51 10.51 0 0 1 12 22.53v-.03z" fill="#FFF" fill-rule="nonzero" mask="url(#9hpzq8lwoc)"/>
            <path d="M12 9.73a.78.78 0 0 0-.78.78v8a.78.78 0 0 0 1.56 0v-7.98a.78.78 0 0 0-.78-.8zM13.29 6.78a1.29 1.29 0 1 1-2.58 0 1.29 1.29 0 0 1 2.58 0z" fill="#FFF" fill-rule="nonzero" mask="url(#9hpzq8lwoc)"/>
        </g>
    </g>
</svg>
